<?xml version="1.0" encoding="utf-8"?>
<!-- Generator: Adobe Illustrator 21.0.0, SVG Export Plug-In . SVG Version: 6.00 Build 0)  -->
<svg version="1.1" id="Layer_1" xmlns="http://www.w3.org/2000/svg" xmlns:xlink="http://www.w3.org/1999/xlink" x="0px" y="0px"
	 viewBox="0 0 724 688.1" style="enable-background:new 0 0 724 688.1;" xml:space="preserve">
<style type="text/css">
	.st0{fill:#D5D1D8;stroke:#513456;stroke-width:7.6349;stroke-miterlimit:10;}
	.st1{fill:#513456;stroke:#513456;stroke-width:2.8631;stroke-linecap:round;stroke-miterlimit:10;}
	.st2{clip-path:url(#SVGID_2_);fill:#D1B4C0;}
	.st3{opacity:0.2;clip-path:url(#SVGID_2_);fill:#513456;}
	.st4{fill:none;stroke:#513456;stroke-width:7.6349;stroke-linecap:round;stroke-miterlimit:10;}
	.st5{opacity:0.5;fill:#FDF174;}
	.st6{fill:#FFFFFF;}
	.st7{fill:#523457;}
	.st8{fill:#513456;stroke:#513456;stroke-width:6;stroke-miterlimit:10;}
</style>
<rect x="209.5" y="187.2" class="st0" width="46.4" height="46.4"/>
<rect x="256" y="187.2" class="st0" width="46.4" height="46.4"/>
<rect x="302.4" y="187.2" class="st0" width="46.4" height="46.4"/>
<rect x="209.5" y="140.7" class="st0" width="46.4" height="46.4"/>
<rect x="256" y="140.7" class="st0" width="46.4" height="46.4"/>
<rect x="302.4" y="140.7" class="st0" width="46.4" height="46.4"/>
<rect x="348.8" y="187.2" class="st0" width="46.4" height="46.4"/>
<rect x="163.1" y="187.2" class="st0" width="46.4" height="46.4"/>
<g>
	<line class="st1" x1="176.7" y1="198.3" x2="176.7" y2="223.1"/>
	<line class="st1" x1="186.3" y1="198.3" x2="186.3" y2="223.1"/>
	<line class="st1" x1="195.8" y1="198.3" x2="195.8" y2="223.1"/>
</g>
<g>
	<line class="st1" x1="223.3" y1="198.3" x2="223.3" y2="223.1"/>
	<line class="st1" x1="232.8" y1="198.3" x2="232.8" y2="223.1"/>
	<line class="st1" x1="242.4" y1="198.3" x2="242.4" y2="223.1"/>
</g>
<g>
	<line class="st1" x1="269.8" y1="198.3" x2="269.8" y2="223.1"/>
	<line class="st1" x1="279.3" y1="198.3" x2="279.3" y2="223.1"/>
	<line class="st1" x1="288.9" y1="198.3" x2="288.9" y2="223.1"/>
</g>
<g>
	<line class="st1" x1="316.3" y1="198.3" x2="316.3" y2="223.1"/>
	<line class="st1" x1="325.9" y1="198.3" x2="325.9" y2="223.1"/>
	<line class="st1" x1="335.4" y1="198.3" x2="335.4" y2="223.1"/>
</g>
<g>
	<line class="st1" x1="223.3" y1="152.5" x2="223.3" y2="177.3"/>
	<line class="st1" x1="232.8" y1="152.5" x2="232.8" y2="177.3"/>
	<line class="st1" x1="242.4" y1="152.5" x2="242.4" y2="177.3"/>
</g>
<g>
	<line class="st1" x1="269.8" y1="152.5" x2="269.8" y2="177.3"/>
	<line class="st1" x1="279.3" y1="152.5" x2="279.3" y2="177.3"/>
	<line class="st1" x1="288.9" y1="152.5" x2="288.9" y2="177.3"/>
</g>
<g>
	<line class="st1" x1="316.3" y1="152.5" x2="316.3" y2="177.3"/>
	<line class="st1" x1="325.9" y1="152.5" x2="325.9" y2="177.3"/>
	<line class="st1" x1="335.4" y1="152.5" x2="335.4" y2="177.3"/>
</g>
<g>
	<line class="st1" x1="362.8" y1="198.3" x2="362.8" y2="223.1"/>
	<line class="st1" x1="372.4" y1="198.3" x2="372.4" y2="223.1"/>
	<line class="st1" x1="381.9" y1="198.3" x2="381.9" y2="223.1"/>
</g>
<g>
	<defs>
		<path id="SVGID_1_" d="M644.2,267.4c-1.2,5.3-3.1,10.2-5.3,15c-2.3,4.8-5,9.4-8.2,13.8c-6.3,8.8-14.4,16.5-23.8,22.6
			c-4.7,3-9.7,5.6-14.9,7.8c-5.2,2.2-10.6,3.8-16.1,5.3c-11,2.6-22.1,3.8-33.5,3.8c-11.4-0.1-23.1-1.7-34.5-5.2
			c-7.2-2.2-14.3-5.1-20.9-8.4c7.5,11.8,12.8,24.6,15.8,37.6c3.2,13.7,3.8,27.7,1.9,41.1c-0.2,1.4-1.5,2.4-2.9,2.2
			c-1.2-0.2-2-1.1-2.2-2.2l0,0c-1.9-12.8-6-24.8-11.9-35.5c-5.9-10.7-13.7-20-22.5-27.5c-8.8-7.5-18.8-13.1-28.8-16.2
			c-1.1-0.3-2.1-0.6-3.2-0.9c-39.6,34.2-96.6,57.3-165.1,57.3c-54.3-1-95.8-21.1-120.4-52.1c-18.5-23.3-27.3-52.7-24.6-84.9
			c0.4-4.2,4-7.5,8.2-7.5h249.3c18.6-1.5,32.3-9.3,42.9-9.3c11.7,0,12.8,9.3,18.6,9.3h2.4c0.2,0,0.5,0,0.7,0
			c2.2-0.1,4.4-0.1,6.6-0.3l6.5-0.7c2.2-0.2,4.3-0.6,6.5-1l3.2-0.6l1.6-0.3l1.5-0.4l6.3-1.6l6.1-2c2.1-0.6,4-1.6,5.9-2.3
			c1-0.4,2-0.8,2.9-1.3l2.8-1.5c7.5-3.9,14.4-8.9,20-15c5.6-6.1,10-13.3,12.5-21.3c1-4,1.9-8.1,1.9-12.3c0.2-2.1-0.2-4.2-0.4-6.3
			c-0.1-1-0.4-2-0.6-3.1c-0.2-1-0.4-2.1-0.8-3.1l-1-3c-0.4-1-0.9-1.9-1.4-2.9l-0.7-1.5c-0.2-0.5-0.6-0.9-0.9-1.4l-1.8-2.7
			c-2.7-3.4-5.8-6.7-9.7-9.2c-7.5-5.2-17-8.2-26.8-9.2c-0.8-0.1-1.4-0.8-1.3-1.6c0.1-0.7,0.6-1.2,1.3-1.3c10.1-1,20.9,0.1,30.9,4.4
			c5.1,2,9.7,5.3,14,8.9l3,3c0.5,0.5,1,1,1.5,1.6l1.3,1.7c0.9,1.1,1.8,2.3,2.6,3.5l2.2,3.7c0.8,1.2,1.3,2.6,1.9,3.9
			c0.6,1.3,1.2,2.7,1.7,4c0.8,2.8,1.8,5.6,2.2,8.5c1.2,5.8,1.2,11.7,0.8,17.6c-1.1,11.7-5.2,23.1-11.4,33.1
			c-6.1,10-14.2,18.8-23.2,26l-3.4,2.7c-1.2,0.9-2.4,1.6-3.6,2.5c-0.6,0.4-1.1,0.8-1.7,1.2c1.3-0.2,2.5-0.3,3.8-0.5
			c14.9-2.2,29.7-5.7,44-11c14.2-5.3,28-12.5,40.3-22.1c0.8-0.6,2-0.5,2.7,0.3c0.6,0.7,0.5,1.7,0,2.4c-10,12.6-22.4,23.6-36,32.8
			c-13.6,9.2-28.5,16.8-43.8,23.1c-5.7,2.3-11.4,4.4-17.2,6.4c6.8,6.1,13.7,11.2,21.4,15.2c7.7,4.1,16.2,7,25.3,8.9
			c9.1,1.8,18.6,2.6,27.9,2.2c4.7-0.3,9.3-0.8,13.9-1.8c4.6-1,9.1-2.3,13.5-4c8.7-3.6,16.9-8.8,24.1-15.5c3.6-3.4,6.8-7.1,9.8-11.1
			c2.9-4,5.6-8.4,7.6-12.9l0-0.1c0.3-0.7,1.1-1,1.8-0.7C644,266.1,644.3,266.8,644.2,267.4z"/>
	</defs>
	<use xlink:href="#SVGID_1_"  style="overflow:visible;fill:#8777B4;"/>
	<clipPath id="SVGID_2_">
		<use xlink:href="#SVGID_1_"  style="overflow:visible;"/>
	</clipPath>
	<path class="st2" d="M323.2,343c-17.2,1-62.2-24.7-62.2-24.7c-13.8,9.1-28.2,0-28.2,0c-32.7,16.1-84.1,7.7-85,7.6
		c24.5,30.9,66.1,51,120.4,52.1c68.5,0,125.5-23.1,165.1-57.3C398,308.2,340.3,342.1,323.2,343z"/>
	<path class="st3" d="M153.6,234.6c0,0,22.9,124.1,122.2,124.1c103.1,0,158.4-45.8,158.4-45.8s63,14.3,68.7,85.9
		c6.7,83.8,43.9,5.7,43.9,5.7l-70.3-91.9c0,0,4.9-3.2,7.3-10.3c0,0,83.4,58.2,154.1-7.8l8.2,73.7L669,236.5l-132.7,54.4L500,287
		l-9.2-2.7c0,0,0.4-5.7-1.8-11.4c9.4-1.3,63.1-10.6,100.8-43.1c58.3-50.3,36.3,0,36.3,0l-36.3-42c0,0-66.1,66.6-100.4,72.3
		c-1-8.3-4.5-15.1-4.5-15.1s61.1-15.3,64.9-72.5s154.6,0,154.6,0l24.8,335.9c0,0-731,3.8-736.8,3.8s-28.6-259.6-28.6-259.6
		L103,199.2L153.6,234.6z"/>
	<path class="st3" d="M313.9,350c18.4,0,65.4-27,90.1-31.3c-32,4.2-67.9,23.6-80.9,24.3c-15.7,0.9-54.6-20.4-61.2-24.1
		C268.7,325.1,297.2,350,313.9,350z"/>
	<path class="st3" d="M378.8,237.4h66.8l-9.5-5.7C436.1,231.7,418.9,235.5,378.8,237.4z"/>
	
		<use xlink:href="#SVGID_1_"  style="overflow:visible;fill:none;stroke:#513456;stroke-width:7.6349;stroke-linecap:round;stroke-miterlimit:10;"/>
</g>
<path class="st4" d="M232.7,318.4c-32.7,16.1-84.1,7.7-85,7.6"/>
<path class="st5" d="M285.8,274.2c0,5.9-20.3,5.7-24,6.2c-8.4,1.2-14.1,5.7-17.1,13.6c-4.3,11.5,14.1,16.5,18.4,5.1
	c-0.1,0.2,11.1-0.7,13.3-1c5-0.8,9.8-1.9,14.5-4c8.4-3.7,14-10.5,14.1-20C305,261.9,285.9,261.9,285.8,274.2z"/>
<rect x="302.4" y="94.3" class="st0" width="46.4" height="46.4"/>
<circle class="st6" cx="249.3" cy="305" r="10.3"/>
<circle class="st7" cx="249.3" cy="305" r="7.2"/>
<circle class="st6" cx="253.1" cy="301.2" r="3.6"/>
<g>
	<line class="st1" x1="316.3" y1="106.7" x2="316.3" y2="131.5"/>
	<line class="st1" x1="325.9" y1="106.7" x2="325.9" y2="131.5"/>
	<line class="st1" x1="335.4" y1="106.7" x2="335.4" y2="131.5"/>
</g>
<path class="st5" d="M252,267.3c-1.7-2.9-5-3.4-7.8-2.1c-5.6,2.6-10.3,5.9-12.5,11.9c-1.1,2.9,1.2,6.3,4,7c3.2,0.9,6-1.1,7-4
	c-0.2,0.5,0.1-0.1,0.2-0.3c0.1-0.2,0.2-0.3,0.2-0.4c0,0,0.1-0.1,0.2-0.2c0.3-0.3,0.6-0.6,0.9-0.9c0.1-0.1,0.6-0.5,0.7-0.5
	c1.6-1.1,3.4-2,5.2-2.8C252.8,273.9,253.5,269.8,252,267.3z"/>
<g>
	<path class="st8" d="M165,546c-6.9-0.2-13.1-2-18.7-5.2c-5.6-3.2-10.5-7.1-14.5-11.5v44.3c0,1.6-0.6,2.9-1.7,4
		c-1.1,1.1-2.5,1.7-4,1.7c-1.6,0-2.9-0.6-4-1.7c-1.1-1.1-1.7-2.5-1.7-4v-72.2c0-6.4,1.2-12.2,3.5-17.6c2.3-5.4,5.5-10,9.6-14
		c4-3.9,8.7-7,14.1-9.2c5.3-2.2,11.1-3.3,17.2-3.3c6.2,0,12.1,1.2,17.5,3.5c5.4,2.3,10.1,5.5,14.1,9.6c4,4,7.1,8.7,9.5,14.1
		c2.3,5.3,3.5,11,3.5,17c0,6.1-1.2,11.9-3.6,17.3c-2.4,5.4-5.6,10.1-9.6,14.1c-4,4-8.7,7.3-14.1,9.6C176.4,544.8,170.8,546,165,546z
		 M131.7,501.4c0.1,4.8,1.1,9.2,2.9,13.2c1.8,4,4.2,7.5,7.2,10.5c2.9,2.9,6.4,5.2,10.3,6.9c3.9,1.7,8.1,2.5,12.5,2.5
		c4.5,0,8.8-0.9,12.9-2.6c4-1.7,7.6-4.1,10.6-7.1c3-3,5.4-6.5,7.1-10.6c1.7-4,2.6-8.3,2.6-12.9c0-4.5-0.9-8.8-2.6-12.8
		c-1.7-4-4.1-7.5-7.1-10.5c-3-3-6.5-5.4-10.6-7.1c-4-1.7-8.3-2.6-12.9-2.6c-4.5,0-8.8,0.9-12.8,2.6c-4,1.7-7.5,4.1-10.5,7.1
		c-3,3-5.4,6.5-7.1,10.5C132.6,492.6,131.7,496.8,131.7,501.4z"/>
	<path class="st8" d="M221.8,462.4c0-1.6,0.6-2.9,1.7-4c1.1-1.1,2.4-1.7,4-1.7c1.6,0,2.9,0.6,4,1.7c1.1,1.1,1.7,2.5,1.7,4v39.3
		c0,4.5,0.9,8.8,2.6,12.8c1.7,4,4.1,7.5,7.1,10.5c3,3,6.5,5.4,10.5,7.1c4,1.7,8.2,2.6,12.8,2.6c4.5,0,8.8-0.9,12.8-2.6
		c4-1.7,7.5-4.1,10.5-7.1c3-3,5.4-6.5,7.1-10.5c1.7-4,2.6-8.2,2.6-12.8v-39.3c0-1.6,0.6-2.9,1.7-4c1.1-1.1,2.4-1.7,4-1.7
		c1.6,0,2.9,0.6,4,1.7c1.1,1.1,1.7,2.5,1.7,4v39.3c0,6.1-1.2,11.9-3.5,17.3c-2.3,5.4-5.5,10.1-9.5,14.1c-4,4-8.7,7.1-14.1,9.5
		c-5.4,2.3-11.1,3.5-17.3,3.5c-6.1,0-11.9-1.2-17.3-3.5c-5.4-2.3-10.1-5.5-14.1-9.5c-4-4-7.1-8.7-9.5-14.1
		c-2.3-5.4-3.5-11.1-3.5-17.3V462.4z"/>
	<path class="st8" d="M326.3,501c0-6,1.1-11.7,3.4-17c2.3-5.3,5.4-10,9.4-14.1c4-4,8.6-7.2,13.9-9.6c5.3-2.3,10.9-3.5,16.9-3.7
		c2,0,3.5,0.6,4.7,1.7c1.2,1.1,1.7,2.5,1.7,4c0,1.6-0.6,2.9-1.7,4c-1.2,1.1-2.7,1.7-4.7,1.7c-4.4,0.1-8.6,1.1-12.5,2.8
		c-3.9,1.8-7.3,4.1-10.3,7.1c-2.9,2.9-5.2,6.4-6.9,10.4c-1.7,4-2.5,8.2-2.5,12.6v39.3c0,1.6-0.6,2.9-1.7,4c-1.1,1.1-2.5,1.7-4,1.7
		c-1.6,0-2.9-0.6-4-1.7c-1.1-1.1-1.7-2.4-1.7-4V501z"/>
	<path class="st8" d="M379.6,501c0-6,1.1-11.7,3.4-17c2.3-5.3,5.4-10,9.4-14.1c4-4,8.6-7.2,13.9-9.6c5.3-2.3,10.9-3.5,16.9-3.7
		c2,0,3.5,0.6,4.7,1.7c1.2,1.1,1.7,2.5,1.7,4c0,1.6-0.6,2.9-1.7,4c-1.2,1.1-2.7,1.7-4.7,1.7c-4.4,0.1-8.6,1.1-12.5,2.8
		c-3.9,1.8-7.3,4.1-10.3,7.1c-2.9,2.9-5.2,6.4-6.9,10.4c-1.7,4-2.5,8.2-2.5,12.6v39.3c0,1.6-0.6,2.9-1.7,4c-1.1,1.1-2.5,1.7-4,1.7
		c-1.6,0-2.9-0.6-4-1.7c-1.1-1.1-1.7-2.4-1.7-4V501z"/>
	<path class="st8" d="M466.7,578.9c-1.5,0.1-3.1,0.7-5,1.8c-1.8,1.1-3.2,2.4-4.2,4c-0.7,1.3-1.8,2.3-3.3,2.8
		c-1.5,0.5-2.9,0.4-4.4-0.2c-1.3-0.7-2.2-1.8-2.7-3.3c-0.4-1.5-0.3-2.9,0.3-4.2c1.7-3.6,4.3-6.5,7.7-8.7c3.4-2.3,7.3-3.4,11.6-3.4
		H491c2.6,0,5-0.5,7.3-1.5c2.3-1,4.3-2.3,6.1-4c1.7-1.7,3.1-3.7,4-6.1c1-2.3,1.5-4.8,1.5-7.3c0-2.5-0.5-4.8-1.4-7.1
		c-0.9-2.3-2.2-4.3-3.9-6c-3.9,3.1-8.2,5.5-12.9,7.2c-4.7,1.7-9.7,2.6-15.1,2.6c-6.1,0-11.8-1.1-17.2-3.3c-5.3-2.2-10-5.3-14.1-9.2
		c-4-3.9-7.2-8.6-9.6-14c-2.3-5.4-3.5-11.3-3.5-17.6c0-6.1,1.1-11.8,3.4-17.2c2.3-5.3,5.4-10,9.4-14c4-4,8.7-7.2,14.1-9.6
		c5.4-2.4,11.4-3.7,17.7-3.9c5.9,0,11.5,1.2,16.8,3.6s10,5.6,14.1,9.6c4,4,7.3,8.8,9.6,14.1c2.4,5.4,3.6,11.1,3.6,17.3
		c0,4.9-0.8,9.6-2.3,14.1c-1.5,4.5-3.7,8.5-6.5,12.2c2.7,2.7,4.8,5.9,6.4,9.5c1.6,3.6,2.4,7.5,2.4,11.7c0,4.2-0.8,8.1-2.4,11.7
		c-1.6,3.6-3.7,6.8-6.4,9.6c-2.7,2.8-5.9,4.9-9.6,6.5c-3.7,1.6-7.6,2.4-11.8,2.4H466.7z M443.8,501.4c0,4.5,0.9,8.8,2.6,12.8
		c1.7,4,4.1,7.5,7.1,10.5c3,3,6.5,5.4,10.5,7.1c4,1.7,8.2,2.6,12.8,2.6c4.5,0,8.8-0.9,12.9-2.6c4-1.7,7.6-4.1,10.6-7.1
		c3-3,5.4-6.5,7.1-10.5c1.7-4,2.6-8.2,2.6-12.8c0-4.5-0.9-8.8-2.6-12.9c-1.7-4-4.1-7.6-7.1-10.6c-3-3-6.5-5.4-10.6-7.1
		c-4-1.7-8.3-2.6-12.9-2.6c-4.5,0-8.8,0.9-12.8,2.6c-4,1.7-7.5,4.1-10.5,7.1c-3,3-5.4,6.5-7.1,10.6
		C444.6,492.5,443.8,496.8,443.8,501.4z"/>
	<path class="st8" d="M536,437.1c0-2.1,0.7-3.9,2.2-5.3c1.5-1.5,3.2-2.2,5.3-2.2c2.1,0,3.9,0.7,5.3,2.2c1.5,1.5,2.2,3.2,2.2,5.3
		c0,2.1-0.7,3.9-2.2,5.3c-1.5,1.5-3.2,2.2-5.3,2.2c-2.1,0-3.9-0.7-5.3-2.2C536.7,440.9,536,439.1,536,437.1z M537.8,462.4
		c0-1.6,0.6-2.9,1.7-4c1.1-1.1,2.4-1.7,4-1.7c1.6,0,2.9,0.6,4,1.7c1.1,1.1,1.7,2.5,1.7,4v77.9c0,1.6-0.6,2.9-1.7,4
		c-1.1,1.1-2.5,1.7-4,1.7c-1.6,0-2.9-0.6-4-1.7c-1.1-1.1-1.7-2.4-1.7-4V462.4z"/>
	<path class="st8" d="M603.7,540.3c0,1.6-0.6,2.9-1.7,4c-1.1,1.1-2.5,1.7-4,1.7c-5.6-0.1-10.3-1.2-14.1-3.3
		c-3.8-2.1-6.9-4.7-9.3-7.7c-2.4-3.1-4.1-6.3-5.1-9.7c-1-3.4-1.6-6.5-1.6-9.2v-82.3c0-1.6,0.6-2.9,1.7-4c1.1-1.1,2.4-1.7,4-1.7
		c1.6,0,2.9,0.6,4,1.7s1.7,2.5,1.7,4V516c0,1,0.2,2.5,0.6,4.4c0.4,2,1.3,4,2.7,6.1c1.3,2.1,3.2,3.9,5.7,5.5c2.4,1.6,5.7,2.5,9.7,2.6
		c1.6,0,2.9,0.6,4,1.7C603.2,537.4,603.7,538.7,603.7,540.3z"/>
</g>
</svg>
